<svg width="24" height="19" viewBox="0 0 24 19" fill="none" xmlns="http://www.w3.org/2000/svg">
<path d="M22.517 4.78825H4.9238L4.27338 1.42825C4.2363 1.24483 4.13661 1.08033 3.99168 0.963391C3.84675 0.846451 3.66574 0.784474 3.48018 0.788249H0.307373V2.38825H2.82975L5.85978 17.7483C5.89686 17.9317 5.99655 18.0962 6.14148 18.2131C6.28641 18.33 6.46742 18.392 6.65298 18.3883H20.9306V16.7882H7.30341L6.65298 13.5882H20.9306C21.114 13.5928 21.2932 13.5331 21.4378 13.4193C21.5824 13.3055 21.6835 13.1447 21.7238 12.9642L23.3102 5.76425C23.3368 5.64555 23.3362 5.5223 23.3084 5.40387C23.2806 5.28545 23.2264 5.17498 23.1499 5.08087C23.0735 4.98675 22.9767 4.91148 22.867 4.86077C22.7573 4.81006 22.6376 4.78526 22.517 4.78825ZM20.296 11.9882H6.35157L5.24108 6.38825H21.5255L20.296 11.9882Z" fill="#737373"/>
</svg>
